<?xml version="1.0" encoding="UTF-8"?><svg id="uuid-7fa83291-a7fb-4a89-9238-904c69b0d0bf" xmlns="http://www.w3.org/2000/svg" viewBox="0 0 390.98 615.02"><path d="M356.59,130.51c-25.92-38.79-103.89-41.16-126.83,22.1-5.93-12.83-24.36-42.35-92.31-65.02C69.5,64.91,41.55,55.72,0,0,5.85,109.16,46.76,161.63,89.99,208.33c0,0-81.95,32.52-89.99,147.05,52.8-61.26,79.38-53.97,198.07-70.4,118.7-16.42,137.96-145.01,192.91-126.82,0,0-5.55-23.17-34.39-27.65Zm-49.34,12.63c-5.03,0-9.11-4.08-9.11-9.11s4.08-9.11,9.11-9.11,9.11,4.08,9.11,9.11-4.08,9.11-9.11,9.11Z" style="fill:#1d1d1b;"/><path d="M300.99,467.96c43.23-46.69,84.14-99.16,89.99-208.32-41.55,55.72-69.5,64.91-137.45,87.58-67.95,22.68-86.38,52.2-92.31,65.03-22.94-63.26-100.91-60.89-126.83-22.1C5.55,394.63,0,417.8,0,417.8c54.95-18.19,74.21,110.4,192.91,126.82,118.69,16.42,145.27,9.14,198.07,70.4-8.04-114.53-89.99-147.06-89.99-147.06Zm-217.26-65.18c-5.03,0-9.11-4.08-9.11-9.11s4.08-9.12,9.11-9.12,9.11,4.08,9.11,9.12-4.08,9.11-9.11,9.11Z" style="fill:#1d1d1b;"/></svg>